Coordinates
version=1
nRows=42
nColumns=38
inDegrees=no

Units are S.I. units (second, meters, Newtons, ...)
If the header above contains a line with 'inDegrees', this indicates whether rotational values are in degrees (yes) or radians (no).

endheader
time	pelvis_tilt	pelvis_list	pelvis_rotation	pelvis_tx	pelvis_ty	pelvis_tz	hip_flexion_r	hip_adduction_r	hip_rotation_r	knee_angle_r	ankle_angle_r	subtalar_angle_r	mtp_angle_r	hip_flexion_l	hip_adduction_l	hip_rotation_l	knee_angle_l	ankle_angle_l	subtalar_angle_l	mtp_angle_l	lumbar_extension	lumbar_bending	lumbar_rotation	arm_flex_r	arm_add_r	arm_rot_r	elbow_flex_r	pro_sup_r	wrist_flex_r	wrist_dev_r	arm_flex_l	arm_add_l	arm_rot_l	elbow_flex_l	pro_sup_l	wrist_flex_l	wrist_dev_l
20	1.30162	1.3557	0.428406	0.656661	-0.853397	0.971439	0.23583	-0.00383805	-0.4373	0.427344	0.116427	0	0	0.144025	-0.141624	-0.0936884	0.0922403	0.138063	0	0	-0.311637	-0.283749	0.175965	-0.26253	-0.551644	-0.513483	1.56807	1.5708	0	0	0.584852	0.286572	0.618034	1.47171	1.04922	0	0
20.01	1.30367	1.35529	0.426242	0.656556	-0.853417	0.971461	0.23579	-0.00324102	-0.435915	0.426431	0.116686	0	0	0.143883	-0.142157	-0.0936014	0.092565	0.138816	0	0	-0.312286	-0.282619	0.174978	-0.262036	-0.55275	-0.511943	1.56917	1.5708	0	0	0.581917	0.289476	0.611315	1.47205	1.04973	0	0
20.02	1.30488	1.35522	0.424629	0.656555	-0.853409	0.971489	0.235805	-0.00284072	-0.434146	0.425911	0.117935	0	0	0.143553	-0.14242	-0.0938027	0.0926643	0.139552	0	0	-0.312728	-0.282385	0.174898	-0.261264	-0.552749	-0.511507	1.56966	1.5708	0	0	0.58217	0.289986	0.609913	1.47171	1.04995	0	0
20.03	1.30512	1.35512	0.4237	0.656617	-0.853338	0.971509	0.235868	-0.00216661	-0.431832	0.425233	0.119262	0	0	0.143094	-0.14268	-0.0942604	0.0923206	0.140139	0	0	-0.312732	-0.282398	0.175478	-0.260993	-0.552287	-0.511558	1.5703	1.5708	0	0	0.582244	0.290276	0.609207	1.4716	1.05015	0	0
20.04	1.3048	1.35488	0.422996	0.656727	-0.853246	0.971554	0.235986	-0.000818577	-0.428343	0.423743	0.117882	0	0	0.142698	-0.14317	-0.0950621	0.0919347	0.140961	0	0	-0.312448	-0.282438	0.176459	-0.260696	-0.551624	-0.511619	1.57081	1.5708	0	0	0.581767	0.290392	0.608149	1.47219	1.05033	0	0
20.05	1.30302	1.35465	0.423531	0.656868	-0.853098	0.971583	0.2365	0.000216855	-0.425228	0.422848	0.1172	0	0	0.142554	-0.143583	-0.0960729	0.0916177	0.142028	0	0	-0.311716	-0.282635	0.177446	-0.260427	-0.550795	-0.511449	1.57158	1.5708	0	0	0.580887	0.290291	0.606818	1.47318	1.05057	0	0
20.06	1.29952	1.35453	0.425792	0.657035	-0.852872	0.971574	0.237389	0.000833613	-0.422512	0.42275	0.117724	0	0	0.142703	-0.143757	-0.0969373	0.0913998	0.143477	0	0	-0.310481	-0.283112	0.178246	-0.260273	-0.549601	-0.51135	1.57264	1.5708	0	0	0.579708	0.289903	0.605467	1.47443	1.0508	0	0
20.07	1.29503	1.35453	0.428841	0.657215	-0.85263	0.97154	0.238627	0.00123053	-0.419824	0.423276	0.118477	0	0	0.143007	-0.143803	-0.0978521	0.0914864	0.145207	0	0	-0.309033	-0.283782	0.179209	-0.260259	-0.548352	-0.511497	1.57398	1.5708	0	0	0.578503	0.289439	0.604313	1.47574	1.05092	0	0
20.08	1.28973	1.35463	0.43229	0.657432	-0.852354	0.971499	0.239963	0.00151158	-0.417047	0.423995	0.118827	0	0	0.143304	-0.143764	-0.0992738	0.0916698	0.14695	0	0	-0.307414	-0.284684	0.180541	-0.260657	-0.546906	-0.511884	1.57554	1.5708	0	0	0.577206	0.288867	0.603145	1.47755	1.05104	0	0
20.09	1.28427	1.35462	0.435963	0.65766	-0.852068	0.971445	0.24126	0.00194321	-0.414413	0.424422	0.118323	0	0	0.143771	-0.143754	-0.100746	0.091854	0.148054	0	0	-0.305785	-0.285416	0.181833	-0.261604	-0.545353	-0.512	1.57767	1.5708	0	0	0.575851	0.288301	0.60177	1.47974	1.05129	0	0
20.1	1.27968	1.35456	0.439477	0.657832	-0.851747	0.971379	0.24213	0.00233402	-0.412681	0.424753	0.117996	0	0	0.144242	-0.143689	-0.101599	0.0920624	0.148831	0	0	-0.304455	-0.285759	0.18268	-0.2631	-0.543607	-0.512469	1.58035	1.5708	0	0	0.574553	0.287919	0.600674	1.48145	1.05158	0	0
20.11	1.27574	1.35459	0.443299	0.657941	-0.85135	0.971292	0.242465	0.00242695	-0.41232	0.425023	0.118305	0	0	0.144635	-0.143449	-0.1016	0.0922488	0.149909	0	0	-0.303427	-0.285856	0.182685	-0.26461	-0.541561	-0.513835	1.583	1.5708	0	0	0.57311	0.287715	0.599727	1.4828	1.05192	0	0
20.12	1.2717	1.35483	0.446667	0.658112	-0.850935	0.971206	0.24276	0.00250124	-0.411308	0.425354	0.117952	0	0	0.144756	-0.143098	-0.102297	0.0924149	0.151437	0	0	-0.302428	-0.286301	0.183022	-0.265303	-0.539548	-0.51546	1.58478	1.5708	0	0	0.571791	0.287187	0.599235	1.48462	1.05231	0	0
20.13	1.26982	1.35551	0.447721	0.65831	-0.850587	0.971145	0.242578	0.00241354	-0.410122	0.425879	0.116972	0	0	0.144317	-0.142574	-0.103144	0.0927166	0.153007	0	0	-0.302431	-0.286778	0.183034	-0.265352	-0.538505	-0.516266	1.5866	1.5708	0	0	0.570828	0.286367	0.598699	1.48717	1.05275	0	0
20.14	1.26927	1.35619	0.447919	0.658467	-0.850214	0.971088	0.241926	0.00247644	-0.409481	0.426006	0.115856	0	0	0.143827	-0.142138	-0.103358	0.0933051	0.154586	0	0	-0.302742	-0.286977	0.182813	-0.265133	-0.537601	-0.517176	1.58776	1.5708	0	0	0.56936	0.285813	0.597797	1.4901	1.05312	0	0
20.15	1.26951	1.35692	0.447371	0.658618	-0.849784	0.971048	0.240962	0.00262425	-0.409192	0.426025	0.115134	0	0	0.143251	-0.141799	-0.103507	0.0941724	0.156101	0	0	-0.303143	-0.287114	0.182807	-0.264997	-0.536518	-0.518574	1.58866	1.5708	0	0	0.567641	0.285431	0.597106	1.49296	1.05339	0	0
20.16	1.27101	1.35774	0.44545	0.658791	-0.849299	0.971043	0.239572	0.00283619	-0.40894	0.426142	0.114955	0	0	0.14241	-0.141594	-0.103939	0.0953369	0.158265	0	0	-0.303724	-0.287261	0.183105	-0.265605	-0.535061	-0.520555	1.58993	1.5708	0	0	0.565867	0.285182	0.596717	1.49569	1.05355	0	0
20.17	1.27406	1.35859	0.442171	0.658941	-0.848815	0.971064	0.237802	0.00313624	-0.408939	0.426313	0.115092	0	0	0.141374	-0.141587	-0.104254	0.0968192	0.161677	0	0	-0.30468	-0.287104	0.183177	-0.26642	-0.533693	-0.522515	1.5915	1.5708	0	0	0.564071	0.285074	0.596175	1.49836	1.05357	0	0
20.18	1.27715	1.35935	0.438985	0.65905	-0.848355	0.971077	0.236103	0.00341523	-0.409356	0.426533	0.115254	0	0	0.140532	-0.141632	-0.104296	0.0986257	0.165939	0	0	-0.305596	-0.286652	0.18308	-0.266469	-0.532407	-0.524561	1.59217	1.5708	0	0	0.562241	0.285199	0.595497	1.50072	1.05342	0	0
20.19	1.27941	1.36013	0.436398	0.65918	-0.847855	0.971091	0.234579	0.00359215	-0.409913	0.4269	0.116065	0	0	0.139752	-0.141615	-0.104375	0.100501	0.170298	0	0	-0.306219	-0.286369	0.183041	-0.265455	-0.530967	-0.526514	1.59169	1.5708	0	0	0.560244	0.285614	0.594826	1.50292	1.05327	0	0
20.2	1.27629	1.34873	0.438962	0.659634	-0.850593	0.973597	0.249834	0.000601982	-0.458849	0.438326	0.0971916	0	0	0.149131	-0.152545	-0.115886	0.0984388	0.190393	0	0	-0.311211	-0.275441	0.180299	-0.248903	-0.529567	-0.524483	1.58554	1.5708	0	0	0.563643	0.286307	0.588671	1.5031	1.05323	0	0
20.21	1.2856	1.36201	0.429489	0.659469	-0.846791	0.97119	0.230877	0.00341605	-0.412406	0.428351	0.117799	0	0	0.137537	-0.141566	-0.104202	0.10434	0.178841	0	0	-0.308181	-0.286116	0.181885	-0.262105	-0.527019	-0.529657	1.59095	1.5708	0	0	0.555537	0.287276	0.591753	1.50795	1.05376	0	0
20.22	1.28741	1.36281	0.427301	0.659586	-0.84628	0.971221	0.229354	0.00317343	-0.414265	0.42903	0.117773	0	0	0.136589	-0.141482	-0.103574	0.105843	0.183096	0	0	-0.308605	-0.286036	0.181344	-0.260333	-0.524786	-0.530825	1.59011	1.5708	0	0	0.55302	0.288348	0.590002	1.50972	1.05416	0	0
20.23	1.28786	1.36362	0.426414	0.659701	-0.845772	0.971207	0.228181	0.00290993	-0.415754	0.429767	0.117339	0	0	0.135964	-0.141293	-0.103345	0.107316	0.186613	0	0	-0.308673	-0.286143	0.180522	-0.258348	-0.521973	-0.532225	1.5891	1.5708	0	0	0.550277	0.289581	0.587562	1.51142	1.05465	0	0
20.24	1.28935	1.36487	0.424672	0.659872	-0.845286	0.971187	0.22686	0.00223808	-0.41739	0.431137	0.117794	0	0	0.135063	-0.140839	-0.102985	0.108903	0.190002	0	0	-0.309352	-0.286554	0.178917	-0.25621	-0.519123	-0.533063	1.58913	1.5708	0	0	0.547725	0.290515	0.584671	1.51386	1.05526	0	0
20.25	1.29136	1.36614	0.422569	0.66006	-0.844802	0.971179	0.225387	0.00158875	-0.419289	0.432532	0.11828	0	0	0.134022	-0.140369	-0.101882	0.110393	0.19357	0	0	-0.310297	-0.286932	0.17676	-0.253487	-0.515831	-0.53385	1.58978	1.5708	0	0	0.544961	0.291154	0.581273	1.51757	1.05593	0	0
20.26	1.29451	1.36726	0.419279	0.660282	-0.844329	0.971192	0.223764	0.00111679	-0.42154	0.433856	0.118452	0	0	0.132745	-0.140086	-0.100383	0.111734	0.197723	0	0	-0.311481	-0.28714	0.174805	-0.251232	-0.512258	-0.534283	1.59117	1.5708	0	0	0.542211	0.291805	0.577714	1.52178	1.05665	0	0
20.27	1.29805	1.36838	0.415395	0.660543	-0.843842	0.971234	0.222006	0.000707942	-0.423846	0.434982	0.118464	0	0	0.131122	-0.139869	-0.0991668	0.112504	0.201275	0	0	-0.31279	-0.28744	0.173307	-0.249784	-0.508202	-0.534956	1.59352	1.5708	0	0	0.539604	0.292546	0.574273	1.52549	1.05725	0	0
20.28	1.30162	1.36942	0.411286	0.660835	-0.843321	0.971296	0.220146	0.000442751	-0.425855	0.435942	0.11831	0	0	0.129186	-0.139777	-0.0983185	0.112828	0.204276	0	0	-0.31403	-0.28778	0.172142	-0.248765	-0.503663	-0.536174	1.5966	1.5708	0	0	0.536906	0.293143	0.570707	1.52934	1.05792	0	0
20.29	1.30453	1.37053	0.407343	0.661175	-0.842821	0.971378	0.218587	7.99407e-05	-0.427182	0.437187	0.118154	0	0	0.126849	-0.139582	-0.0979404	0.112441	0.207282	0	0	-0.315112	-0.28829	0.171156	-0.248274	-0.499462	-0.535252	1.6011	1.5708	0	0	0.534117	0.293279	0.566947	1.5339	1.05862	0	0
20.3	1.30567	1.37173	0.404698	0.661592	-0.842331	0.971456	0.217712	-0.000416535	-0.427867	0.438829	0.117959	0	0	0.124431	-0.139221	-0.0979434	0.111602	0.210372	0	0	-0.315828	-0.289185	0.170403	-0.247849	-0.495459	-0.532564	1.60608	1.5708	0	0	0.531376	0.293004	0.563519	1.53906	1.0589	0	0
20.31	1.30446	1.3611	0.404374	0.662437	-0.84469	0.973802	0.23156	-0.00566588	-0.48821	0.45936	0.107334	0	0	0.13353	-0.1528	-0.12708	0.114145	0.208064	0	0	-0.320777	-0.279566	0.167707	-0.233683	-0.490876	-0.527818	1.60454	1.5708	0	0	0.533972	0.292245	0.555863	1.54261	1.05882	0	0
20.32	1.3057	1.37718	0.400354	0.662623	-0.841263	0.972071	0.215178	-0.00493814	-0.428851	0.442696	0.117848	0	0	0.12184	-0.134481	-0.111577	0.117854	0.217675	0	0	-0.318618	-0.29532	0.167793	-0.2448	-0.484374	-0.527398	1.61269	1.5708	0	0	0.525869	0.290447	0.555093	1.55172	1.05847	0	0
20.33	1.30671	1.37735	0.396628	0.663235	-0.840648	0.972212	0.21455	-0.00468716	-0.43	0.444231	0.117667	0	0	0.1195	-0.135579	-0.113132	0.116525	0.21906	0	0	-0.318241	-0.295861	0.167884	-0.244671	-0.479493	-0.522568	1.61718	1.5708	0	0	0.522451	0.288589	0.551258	1.55906	1.05771	0	0
20.34	1.30621	1.37708	0.394139	0.663929	-0.84003	0.972347	0.214518	-0.00380746	-0.430507	0.445297	0.116836	0	0	0.118051	-0.137149	-0.115155	0.116057	0.220449	0	0	-0.317247	-0.296207	0.168077	-0.24399	-0.474523	-0.517308	1.6214	1.5708	0	0	0.519105	0.286259	0.5471	1.56683	1.05726	0	0
20.35	1.30669	1.37651	0.390156	0.66468	-0.839441	0.972529	0.214497	-0.00275776	-0.4312	0.446499	0.116015	0	0	0.116839	-0.139145	-0.117782	0.116351	0.222252	0	0	-0.316349	-0.296232	0.168188	-0.242082	-0.469536	-0.512271	1.62591	1.5708	0	0	0.515851	0.283711	0.542506	1.57522	1.05655	0	0
20.36	1.30769	1.37581	0.385534	0.665499	-0.838848	0.972719	0.21446	-0.00156006	-0.431771	0.447683	0.1151	0	0	0.115748	-0.141305	-0.120522	0.117045	0.223638	0	0	-0.315559	-0.296052	0.168199	-0.240464	-0.464958	-0.506469	1.63121	1.5708	0	0	0.512922	0.280888	0.537799	1.58421	1.05564	0	0
20.37	1.30854	1.37482	0.381296	0.666332	-0.838223	0.972907	0.214287	-0.000440531	-0.433245	0.448628	0.114168	0	0	0.114784	-0.143643	-0.122902	0.117522	0.223887	0	0	-0.314664	-0.295567	0.168236	-0.238959	-0.460376	-0.500657	1.63625	1.5708	0	0	0.510204	0.277874	0.533508	1.59363	1.05463	0	0
20.38	1.30964	1.37368	0.376994	0.667155	-0.83753	0.97309	0.213887	0.000453457	-0.435704	0.449434	0.113226	0	0	0.113764	-0.146082	-0.125089	0.117815	0.222943	0	0	-0.313656	-0.294836	0.168265	-0.237202	-0.455914	-0.495342	1.6406	1.5708	0	0	0.507462	0.274573	0.529711	1.60317	1.05347	0	0
20.39	1.31122	1.37236	0.372056	0.668007	-0.836785	0.973255	0.213338	0.00130963	-0.438616	0.449878	0.112094	0	0	0.112836	-0.148757	-0.127138	0.118473	0.221573	0	0	-0.312573	-0.293853	0.168371	-0.234754	-0.452016	-0.490093	1.64415	1.5708	0	0	0.504294	0.270937	0.525859	1.61416	1.05205	0	0
20.4	1.31261	1.371	0.366918	0.668904	-0.836033	0.973389	0.212811	0.00217572	-0.4405	0.449978	0.110391	0	0	0.112117	-0.151429	-0.129099	0.119549	0.220006	0	0	-0.311466	-0.292865	0.168724	-0.231077	-0.448878	-0.48516	1.64664	1.5708	0	0	0.500636	0.266962	0.52203	1.62859	1.05041	0	0
20.41	1.31357	1.36974	0.361928	0.669841	-0.835254	0.973496	0.212374	0.00288384	-0.441549	0.44984	0.107879	0	0	0.11157	-0.154089	-0.131193	0.121069	0.218468	0	0	-0.310308	-0.292014	0.169311	-0.227339	-0.446422	-0.480457	1.64872	1.5708	0	0	0.496394	0.262549	0.518616	1.64737	1.04854	0	0
